<svg version="1.2" baseProfile="tiny-ps" xmlns="http://www.w3.org/2000/svg" viewBox="0 0 43 40" width="43" height="40">
	<title>Startup PSD</title>
	<style>
		tspan { white-space:pre }
		.s0 { fill: #ffffff } 
	</style>
	<g id="Startup PSD">
		<g id="Services">
			<g id="Single Services">
				<g id="On hover Service-1 ">
					<g id="FA icon">
						<path id="fa-font" class="s0" d="m18.73 11.22c1.83 3.78 3.41 7.81 4.75 11.77c-0.49 0.03-0.98 0.05-1.47 0.05c-2.56 0-5.12-0.08-7.67-0.1l4.39-11.72zm-18.74 28.78c1.63 0 3.23-0.08 4.86-0.36c0.36-0.05 0.88-0.21 1.24-0.21c3 0 6.02 0.52 9.02 0.52c0.03-0.23 0.05-0.47 0.05-0.7c0-0.52 0-1.02-0.03-1.51c-1.47-0.21-5.27-0.29-5.27-2.29c0-0.99 2.61-7.81 3.28-9.32l11.63 0.05c0.41 1.07 3.75 8.8 3.75 9.74c0 0.96-1.37 1.15-2.07 1.3l-3.39 0.73c-0.08 0.68-0.1 1.35-0.1 2.03c3.39-0.1 6.77-0.39 10.16-0.39c3.28 0 6.56 0.42 9.85 0.42c0-0.23 0.03-0.44 0.03-0.68c0-0.49-0.08-0.99-0.16-1.48c-1.21-0.47-3.59-0.63-4.44-1.3c-0.36-0.29-0.72-1.07-0.9-1.48c-1.29-2.66-2.2-5.44-3.36-8.15c-1.96-4.58-3.75-9.24-5.69-13.85l-5.3-12.5c-0.08-0.18-0.18-0.36-0.28-0.55h-1.37h-1.94l-7.24 18.85l-6.12 16.04c-1.09 2.81-3.72 2.29-6.15 3.05l-0.05 2.06z" />
					</g>
				</g>
			</g>
		</g>
	</g>
</svg>