<svg version="1.2" baseProfile="tiny-ps" xmlns="http://www.w3.org/2000/svg" viewBox="0 0 53 40" width="53" height="40">
	<title>Startup PSD</title>
	<style>
		tspan { white-space:pre }
		.s0 { fill: #c0301c } 
	</style>
	<g id="Startup PSD">
		<g id="Services">
			<g id="Single Services">
				<g id="Service -2">
					<g id="FA icon">
						<path id="fa-code" class="s0" d="m15.16 34.17c-0.38 0.38-0.95 0.38-1.33 0l-13.45-13.51c-0.38-0.38-0.38-0.96 0-1.33l13.45-13.51c0.38-0.38 0.95-0.38 1.33 0l1.44 1.45c0.38 0.38 0.38 0.96 0 1.33l-11.34 11.39l11.34 11.39c0.38 0.38 0.38 0.96 0 1.33l-1.44 1.45zm18.5-32.38c0.14-0.49-0.14-1.01-0.64-1.16l-1.79-0.49c-0.46-0.15-0.98 0.14-1.13 0.64l-10.77 37.42c-0.14 0.49 0.14 1.01 0.64 1.16l1.79 0.49c0.46 0.15 0.98-0.14 1.13-0.64l10.77-37.42zm18.97 18.87c0.38-0.38 0.38-0.96 0-1.33l-13.45-13.51c-0.38-0.38-0.95-0.38-1.33 0l-1.44 1.45c-0.38 0.38-0.38 0.96 0 1.33l11.34 11.39l-11.34 11.39c-0.38 0.38-0.38 0.96 0 1.33l1.44 1.45c0.38 0.38 0.95 0.38 1.33 0l13.45-13.51z" />
					</g>
				</g>
			</g>
		</g>
	</g>
</svg>